<mxfile host="app.diagrams.net" modified="2021-10-27T02:32:07.444Z" agent="5.0 (Windows NT 10.0; Win64; x64) AppleWebKit/537.36 (KHTML, like Gecko) Chrome/94.0.4606.81 Safari/537.36" etag="MasO-hW5i_82seI99CzQ" version="15.5.9" type="github">
  <diagram id="5sCQE2CZBczaVhHulll9" name="Page-1">
    <mxGraphModel dx="1221" dy="604" grid="1" gridSize="10" guides="1" tooltips="1" connect="1" arrows="1" fold="1" page="1" pageScale="1" pageWidth="827" pageHeight="1169" math="0" shadow="0">
      <root>
        <mxCell id="0" />
        <mxCell id="1" parent="0" />
        <mxCell id="c8ZrILVk97Ji5BdjQVq4-19" style="edgeStyle=orthogonalEdgeStyle;rounded=0;orthogonalLoop=1;jettySize=auto;html=1;exitX=0.5;exitY=1;exitDx=0;exitDy=0;" edge="1" parent="1" source="c8ZrILVk97Ji5BdjQVq4-1" target="c8ZrILVk97Ji5BdjQVq4-3">
          <mxGeometry relative="1" as="geometry" />
        </mxCell>
        <mxCell id="c8ZrILVk97Ji5BdjQVq4-1" value="Mulai" style="ellipse;whiteSpace=wrap;html=1;" vertex="1" parent="1">
          <mxGeometry x="354" y="5" width="120" height="80" as="geometry" />
        </mxCell>
        <mxCell id="c8ZrILVk97Ji5BdjQVq4-21" style="edgeStyle=orthogonalEdgeStyle;rounded=0;orthogonalLoop=1;jettySize=auto;html=1;exitX=0.5;exitY=1;exitDx=0;exitDy=0;" edge="1" parent="1" source="c8ZrILVk97Ji5BdjQVq4-2" target="c8ZrILVk97Ji5BdjQVq4-4">
          <mxGeometry relative="1" as="geometry" />
        </mxCell>
        <mxCell id="c8ZrILVk97Ji5BdjQVq4-2" value="Sate, Bakso, Soto, Nasgor" style="rounded=0;whiteSpace=wrap;html=1;" vertex="1" parent="1">
          <mxGeometry x="354" y="191" width="120" height="60" as="geometry" />
        </mxCell>
        <mxCell id="c8ZrILVk97Ji5BdjQVq4-20" style="edgeStyle=orthogonalEdgeStyle;rounded=0;orthogonalLoop=1;jettySize=auto;html=1;exitX=0.5;exitY=1;exitDx=0;exitDy=0;entryX=0.5;entryY=0;entryDx=0;entryDy=0;" edge="1" parent="1" source="c8ZrILVk97Ji5BdjQVq4-3" target="c8ZrILVk97Ji5BdjQVq4-2">
          <mxGeometry relative="1" as="geometry" />
        </mxCell>
        <mxCell id="c8ZrILVk97Ji5BdjQVq4-3" value="Menu" style="shape=parallelogram;perimeter=parallelogramPerimeter;whiteSpace=wrap;html=1;fixedSize=1;" vertex="1" parent="1">
          <mxGeometry x="354" y="107" width="120" height="60" as="geometry" />
        </mxCell>
        <mxCell id="c8ZrILVk97Ji5BdjQVq4-22" style="edgeStyle=orthogonalEdgeStyle;rounded=0;orthogonalLoop=1;jettySize=auto;html=1;exitX=0.5;exitY=1;exitDx=0;exitDy=0;" edge="1" parent="1" source="c8ZrILVk97Ji5BdjQVq4-4" target="c8ZrILVk97Ji5BdjQVq4-5">
          <mxGeometry relative="1" as="geometry" />
        </mxCell>
        <mxCell id="c8ZrILVk97Ji5BdjQVq4-4" value="Masukan Yang &lt;br&gt;ingin dipesan" style="shape=parallelogram;perimeter=parallelogramPerimeter;whiteSpace=wrap;html=1;fixedSize=1;" vertex="1" parent="1">
          <mxGeometry x="354" y="277" width="120" height="60" as="geometry" />
        </mxCell>
        <mxCell id="c8ZrILVk97Ji5BdjQVq4-23" value="n" style="edgeStyle=orthogonalEdgeStyle;rounded=0;orthogonalLoop=1;jettySize=auto;html=1;exitX=0.5;exitY=1;exitDx=0;exitDy=0;" edge="1" parent="1" source="c8ZrILVk97Ji5BdjQVq4-5" target="c8ZrILVk97Ji5BdjQVq4-7">
          <mxGeometry relative="1" as="geometry" />
        </mxCell>
        <mxCell id="c8ZrILVk97Ji5BdjQVq4-31" value="y" style="edgeStyle=orthogonalEdgeStyle;rounded=0;orthogonalLoop=1;jettySize=auto;html=1;exitX=1;exitY=0.5;exitDx=0;exitDy=0;" edge="1" parent="1" source="c8ZrILVk97Ji5BdjQVq4-5" target="c8ZrILVk97Ji5BdjQVq4-6">
          <mxGeometry relative="1" as="geometry" />
        </mxCell>
        <mxCell id="c8ZrILVk97Ji5BdjQVq4-5" value="Sate" style="rhombus;whiteSpace=wrap;html=1;" vertex="1" parent="1">
          <mxGeometry x="374" y="360" width="80" height="80" as="geometry" />
        </mxCell>
        <mxCell id="c8ZrILVk97Ji5BdjQVq4-36" style="edgeStyle=orthogonalEdgeStyle;rounded=0;orthogonalLoop=1;jettySize=auto;html=1;exitX=1;exitY=0.5;exitDx=0;exitDy=0;" edge="1" parent="1" source="c8ZrILVk97Ji5BdjQVq4-6" target="c8ZrILVk97Ji5BdjQVq4-16">
          <mxGeometry relative="1" as="geometry">
            <Array as="points">
              <mxPoint x="680" y="400" />
              <mxPoint x="680" y="910" />
            </Array>
          </mxGeometry>
        </mxCell>
        <mxCell id="c8ZrILVk97Ji5BdjQVq4-6" value="Anda memesan Sate" style="rounded=0;whiteSpace=wrap;html=1;" vertex="1" parent="1">
          <mxGeometry x="500" y="370" width="120" height="60" as="geometry" />
        </mxCell>
        <mxCell id="c8ZrILVk97Ji5BdjQVq4-24" value="n" style="edgeStyle=orthogonalEdgeStyle;rounded=0;orthogonalLoop=1;jettySize=auto;html=1;exitX=0.5;exitY=1;exitDx=0;exitDy=0;" edge="1" parent="1" source="c8ZrILVk97Ji5BdjQVq4-7" target="c8ZrILVk97Ji5BdjQVq4-10">
          <mxGeometry relative="1" as="geometry" />
        </mxCell>
        <mxCell id="c8ZrILVk97Ji5BdjQVq4-32" value="y" style="edgeStyle=orthogonalEdgeStyle;rounded=0;orthogonalLoop=1;jettySize=auto;html=1;exitX=1;exitY=0.5;exitDx=0;exitDy=0;" edge="1" parent="1" source="c8ZrILVk97Ji5BdjQVq4-7" target="c8ZrILVk97Ji5BdjQVq4-8">
          <mxGeometry relative="1" as="geometry" />
        </mxCell>
        <mxCell id="c8ZrILVk97Ji5BdjQVq4-7" value="Bakso" style="rhombus;whiteSpace=wrap;html=1;" vertex="1" parent="1">
          <mxGeometry x="374" y="470" width="80" height="80" as="geometry" />
        </mxCell>
        <mxCell id="c8ZrILVk97Ji5BdjQVq4-37" style="edgeStyle=orthogonalEdgeStyle;rounded=0;orthogonalLoop=1;jettySize=auto;html=1;exitX=1;exitY=0.5;exitDx=0;exitDy=0;" edge="1" parent="1" source="c8ZrILVk97Ji5BdjQVq4-8">
          <mxGeometry relative="1" as="geometry">
            <mxPoint x="680" y="510.11764705882365" as="targetPoint" />
          </mxGeometry>
        </mxCell>
        <mxCell id="c8ZrILVk97Ji5BdjQVq4-8" value="Anda memesan Bakso" style="rounded=0;whiteSpace=wrap;html=1;" vertex="1" parent="1">
          <mxGeometry x="500" y="480" width="120" height="60" as="geometry" />
        </mxCell>
        <mxCell id="c8ZrILVk97Ji5BdjQVq4-25" value="n" style="edgeStyle=orthogonalEdgeStyle;rounded=0;orthogonalLoop=1;jettySize=auto;html=1;exitX=0.5;exitY=1;exitDx=0;exitDy=0;" edge="1" parent="1" source="c8ZrILVk97Ji5BdjQVq4-10" target="c8ZrILVk97Ji5BdjQVq4-12">
          <mxGeometry relative="1" as="geometry" />
        </mxCell>
        <mxCell id="c8ZrILVk97Ji5BdjQVq4-33" style="edgeStyle=orthogonalEdgeStyle;rounded=0;orthogonalLoop=1;jettySize=auto;html=1;exitX=1;exitY=0.5;exitDx=0;exitDy=0;" edge="1" parent="1" source="c8ZrILVk97Ji5BdjQVq4-10" target="c8ZrILVk97Ji5BdjQVq4-11">
          <mxGeometry relative="1" as="geometry" />
        </mxCell>
        <mxCell id="c8ZrILVk97Ji5BdjQVq4-40" value="y" style="edgeStyle=orthogonalEdgeStyle;rounded=0;orthogonalLoop=1;jettySize=auto;html=1;" edge="1" parent="1" source="c8ZrILVk97Ji5BdjQVq4-10" target="c8ZrILVk97Ji5BdjQVq4-11">
          <mxGeometry relative="1" as="geometry" />
        </mxCell>
        <mxCell id="c8ZrILVk97Ji5BdjQVq4-10" value="Soto" style="rhombus;whiteSpace=wrap;html=1;" vertex="1" parent="1">
          <mxGeometry x="374" y="578" width="80" height="80" as="geometry" />
        </mxCell>
        <mxCell id="c8ZrILVk97Ji5BdjQVq4-38" style="edgeStyle=orthogonalEdgeStyle;rounded=0;orthogonalLoop=1;jettySize=auto;html=1;exitX=1;exitY=0.5;exitDx=0;exitDy=0;" edge="1" parent="1" source="c8ZrILVk97Ji5BdjQVq4-11">
          <mxGeometry relative="1" as="geometry">
            <mxPoint x="680" y="619.5294117647059" as="targetPoint" />
          </mxGeometry>
        </mxCell>
        <mxCell id="c8ZrILVk97Ji5BdjQVq4-11" value="Anda Memesan Soto" style="rounded=0;whiteSpace=wrap;html=1;" vertex="1" parent="1">
          <mxGeometry x="500" y="590" width="120" height="60" as="geometry" />
        </mxCell>
        <mxCell id="c8ZrILVk97Ji5BdjQVq4-27" value="n" style="edgeStyle=orthogonalEdgeStyle;rounded=0;orthogonalLoop=1;jettySize=auto;html=1;exitX=0.5;exitY=1;exitDx=0;exitDy=0;" edge="1" parent="1" source="c8ZrILVk97Ji5BdjQVq4-12" target="c8ZrILVk97Ji5BdjQVq4-15">
          <mxGeometry relative="1" as="geometry" />
        </mxCell>
        <mxCell id="c8ZrILVk97Ji5BdjQVq4-34" value="y" style="edgeStyle=orthogonalEdgeStyle;rounded=0;orthogonalLoop=1;jettySize=auto;html=1;exitX=1;exitY=0.5;exitDx=0;exitDy=0;" edge="1" parent="1" source="c8ZrILVk97Ji5BdjQVq4-12" target="c8ZrILVk97Ji5BdjQVq4-13">
          <mxGeometry relative="1" as="geometry" />
        </mxCell>
        <mxCell id="c8ZrILVk97Ji5BdjQVq4-12" value="Nasgor" style="rhombus;whiteSpace=wrap;html=1;" vertex="1" parent="1">
          <mxGeometry x="374" y="680" width="80" height="80" as="geometry" />
        </mxCell>
        <mxCell id="c8ZrILVk97Ji5BdjQVq4-39" style="edgeStyle=orthogonalEdgeStyle;rounded=0;orthogonalLoop=1;jettySize=auto;html=1;exitX=1;exitY=0.5;exitDx=0;exitDy=0;" edge="1" parent="1" source="c8ZrILVk97Ji5BdjQVq4-13">
          <mxGeometry relative="1" as="geometry">
            <mxPoint x="680" y="719.5294117647059" as="targetPoint" />
          </mxGeometry>
        </mxCell>
        <mxCell id="c8ZrILVk97Ji5BdjQVq4-13" value="Ada memesan Nasgor" style="rounded=0;whiteSpace=wrap;html=1;" vertex="1" parent="1">
          <mxGeometry x="500" y="690" width="120" height="60" as="geometry" />
        </mxCell>
        <mxCell id="c8ZrILVk97Ji5BdjQVq4-28" style="edgeStyle=orthogonalEdgeStyle;rounded=0;orthogonalLoop=1;jettySize=auto;html=1;exitX=0.5;exitY=1;exitDx=0;exitDy=0;" edge="1" parent="1" source="c8ZrILVk97Ji5BdjQVq4-15" target="c8ZrILVk97Ji5BdjQVq4-16">
          <mxGeometry relative="1" as="geometry" />
        </mxCell>
        <mxCell id="c8ZrILVk97Ji5BdjQVq4-15" value="Menu yang anda pesan Tidak Tersedia" style="rounded=0;whiteSpace=wrap;html=1;" vertex="1" parent="1">
          <mxGeometry x="354" y="794" width="120" height="60" as="geometry" />
        </mxCell>
        <mxCell id="c8ZrILVk97Ji5BdjQVq4-29" style="edgeStyle=orthogonalEdgeStyle;rounded=0;orthogonalLoop=1;jettySize=auto;html=1;exitX=0.5;exitY=1;exitDx=0;exitDy=0;" edge="1" parent="1" source="c8ZrILVk97Ji5BdjQVq4-16" target="c8ZrILVk97Ji5BdjQVq4-17">
          <mxGeometry relative="1" as="geometry" />
        </mxCell>
        <mxCell id="c8ZrILVk97Ji5BdjQVq4-16" value="Pesanan Anda :&amp;nbsp;" style="shape=parallelogram;perimeter=parallelogramPerimeter;whiteSpace=wrap;html=1;fixedSize=1;" vertex="1" parent="1">
          <mxGeometry x="354" y="880" width="120" height="60" as="geometry" />
        </mxCell>
        <mxCell id="c8ZrILVk97Ji5BdjQVq4-30" style="edgeStyle=orthogonalEdgeStyle;rounded=0;orthogonalLoop=1;jettySize=auto;html=1;exitX=0.5;exitY=1;exitDx=0;exitDy=0;" edge="1" parent="1" source="c8ZrILVk97Ji5BdjQVq4-17" target="c8ZrILVk97Ji5BdjQVq4-18">
          <mxGeometry relative="1" as="geometry" />
        </mxCell>
        <mxCell id="c8ZrILVk97Ji5BdjQVq4-17" value="Terimakasih &lt;br&gt;Selamat&lt;br&gt;Menikmati :-)" style="shape=parallelogram;perimeter=parallelogramPerimeter;whiteSpace=wrap;html=1;fixedSize=1;" vertex="1" parent="1">
          <mxGeometry x="353" y="971" width="120" height="60" as="geometry" />
        </mxCell>
        <mxCell id="c8ZrILVk97Ji5BdjQVq4-18" value="Selesai" style="ellipse;whiteSpace=wrap;html=1;" vertex="1" parent="1">
          <mxGeometry x="354" y="1061" width="120" height="80" as="geometry" />
        </mxCell>
      </root>
    </mxGraphModel>
  </diagram>
</mxfile>
